<svg width="16" height="16" viewBox="0 0 16 16" fill="none" xmlns="http://www.w3.org/2000/svg">
<path d="M5.20989 0.875116C5.68239 0.889486 6.13989 0.971986 6.58314 1.12274H6.62739C6.65739 1.13699 6.67989 1.15274 6.69489 1.16699C6.86064 1.22024 7.01739 1.28024 7.16739 1.36274L7.45239 1.49024C7.56489 1.55024 7.69989 1.66199 7.77489 1.70774C7.84989 1.75199 7.93239 1.79774 7.99989 1.84949C8.83314 1.21274 9.84489 0.867736 10.8874 0.875116C11.3606 0.875116 11.8331 0.941986 12.2824 1.09274C15.0506 1.99274 16.0481 5.03024 15.2149 7.68524C14.7424 9.04199 13.9699 10.2802 12.9581 11.292C11.5099 12.6945 9.92064 13.9395 8.20989 15.012L8.02239 15.1252L7.82739 15.0045C6.11064 13.9395 4.51239 12.6945 3.05064 11.2845C2.04564 10.2727 1.27239 9.04199 0.79239 7.68524C-0.0551097 5.03024 0.942391 1.99274 3.74064 1.07699C3.95814 1.00199 4.18239 0.949486 4.40739 0.920236H4.49739C4.70814 0.889486 4.91739 0.875116 5.12739 0.875116H5.20989ZM11.8924 3.24524C11.5849 3.13949 11.2474 3.30524 11.1349 3.62024C11.0299 3.93524 11.1949 4.28024 11.5099 4.39199C11.9906 4.57199 12.3124 5.04524 12.3124 5.56949V5.59274C12.2981 5.76449 12.3499 5.93024 12.4549 6.05774C12.5599 6.18524 12.7174 6.25949 12.8824 6.27524C13.1899 6.26699 13.4524 6.02024 13.4749 5.70449V5.61524C13.4974 4.56449 12.8606 3.61274 11.8924 3.24524Z" fill="#FB9C46"/>
</svg>
