<svg width="44" height="44" viewBox="0 0 44 44" fill="none" xmlns="http://www.w3.org/2000/svg">
<path d="M31.4034 0.333984C38.7484 0.333984 43.6667 5.49065 43.6667 13.1607V30.8645C43.6667 38.5107 38.7484 43.6673 31.4034 43.6673H12.6184C5.27337 43.6673 0.333374 38.5107 0.333374 30.8645V13.1607C0.333374 5.49065 5.27337 0.333984 12.6184 0.333984H31.4034ZM31.0567 15.5007C30.32 14.764 29.1067 14.764 28.37 15.5007L19.4217 24.449L15.63 20.6573C14.8934 19.9207 13.68 19.9207 12.9434 20.6573C12.2067 21.394 12.2067 22.5857 12.9434 23.344L18.1 28.479C18.4684 28.8473 18.945 29.0207 19.4217 29.0207C19.92 29.0207 20.3967 28.8473 20.765 28.479L31.0567 18.1873C31.7934 17.4507 31.7934 16.259 31.0567 15.5007Z" fill="#058E6E"/>
</svg>
