<svg width="20" height="22" viewBox="0 0 20 22" fill="none" xmlns="http://www.w3.org/2000/svg">
<path d="M14.5403 0.166992C17.8867 0.166992 19.75 2.09533 19.75 5.39949V16.5903C19.75 19.9487 17.8867 21.8337 14.5403 21.8337H5.46083C2.1675 21.8337 0.25 19.9487 0.25 16.5903V5.39949C0.25 2.09533 2.1675 0.166992 5.46083 0.166992H14.5403ZM5.75333 15.052C5.42833 15.0195 5.11417 15.1712 4.94083 15.4528C4.7675 15.7237 4.7675 16.0812 4.94083 16.3628C5.11417 16.6337 5.42833 16.7962 5.75333 16.7528H14.2467C14.6789 16.7095 15.005 16.3401 15.005 15.9078C15.005 15.4637 14.6789 15.0953 14.2467 15.052H5.75333ZM14.2467 10.1109H5.75333C5.28642 10.1109 4.90833 10.4912 4.90833 10.957C4.90833 11.4228 5.28642 11.802 5.75333 11.802H14.2467C14.7125 11.802 15.0917 11.4228 15.0917 10.957C15.0917 10.4912 14.7125 10.1109 14.2467 10.1109ZM8.99142 5.20449H5.75333V5.21533C5.28642 5.21533 4.90833 5.59449 4.90833 6.06033C4.90833 6.52616 5.28642 6.90533 5.75333 6.90533H8.99142C9.45833 6.90533 9.8375 6.52616 9.8375 6.04841C9.8375 5.58366 9.45833 5.20449 8.99142 5.20449Z" fill="#FB9C46"/>
</svg>
